<svg id="Layer_1" data-name="Layer 1" xmlns="http://www.w3.org/2000/svg" viewBox="0 0 1920 1080"><defs><style>.cls-1{fill:#143c85;}</style></defs><path class="cls-1" d="M1920,1039.12V1080H0V962.36c452.52-54.8,717.3-6.55,974,40.24C1233.81,1049.84,1480.6,1094.82,1920,1039.12ZM970.61,720.25C714.79,673.72,451,625.64,0,680.5V800.44c440.66-55.73,688.25-10.6,949.19,37,174.49,31.73,352.74,64.05,591.47,64.05,111.28,0,235.88-7.1,379.34-24.49V757.25C1479.29,813.05,1231.46,767.78,970.61,720.25ZM952.76,555.88c173.5,31.53,350.76,63.84,588.1,63.84,111.26,0,235.68-7.1,379.14-24.63V515.25c-442.15,55.58-691,10.16-953-37.49-254.77-46.29-517.33-94-967-39.2v79.73C441.86,462.85,690.78,508.24,952.76,555.88Zm3.58-241.71c172.49,31.33,348.56,63.45,584.72,63.45,111.12,0,235.46-7.16,378.94-24.78V312.89c-445.71,55.23-704.92,8-956.53-37.78C709.74,228.84,448.15,181.33,0,236.31v39.95C445.47,221.06,704.61,268.32,956.34,314.17Z"/></svg>