<svg id="Layer_1" data-name="Layer 1" xmlns="http://www.w3.org/2000/svg" viewBox="0 0 1920 1080"><defs><style>.cls-1{fill:#88e2f2;}</style></defs><path class="cls-1" d="M1039.88,1080H887.57c161.89-166.55,303.08-264.22,441.14-359.78,186.39-128.94,364-251.7,591.29-534.6v166c-39,44.44-76.78,84.62-113.47,121.31-151.83,151.84-285.76,244.65-416.92,335.45C1274.21,888.16,1162.29,965.56,1039.88,1080Zm172.93-453c130.4-90.29,263.7-182.48,414.65-333.43C1706.52,214.53,1790.38,119.38,1881.32,0h-90.1c-240.5,306.41-425,434-619,568.25C997.1,689.51,817.12,814.18,595.51,1080h93.18C884.47,854.23,1045.11,743.12,1212.81,627Zm-803,453c257.42-336.37,457.44-474.69,651.56-609,129.63-89.79,262.05-181.34,412.25-331.54,41.6-41.6,84.54-87.7,129.15-139.48h-47.38c-194.05,220-356.19,332.2-514.33,441.64-200.5,138.66-407.4,282-676,638.36ZM1510.43,897.65c-80.5,55.68-162.06,112.09-248.15,182.35h236.24c31-22,61.92-43.47,93.13-65.07C1696.74,942.19,1803.6,868.16,1920,763.77V567.27C1773.43,715.62,1644.21,805,1510.43,897.65ZM1920,953.81c-58.42,45.72-115.61,86.08-173.38,126.19H1920Z"/></svg>