<svg xmlns="http://www.w3.org/2000/svg" viewBox="0 0 1064.85 236.75"><defs><style>.cls-1{fill:#88e2f2;}.cls-2{fill:#143c85;}</style></defs><g id="Logos"><path class="cls-1" d="M154,162.4a199.14,199.14,0,0,0,22-1.27,53,53,0,0,1-8.74,11.37l-.11.11c-21.7,1.62-35.59-.91-50.12-3.55-15.8-2.87-32-5.84-58.37-3.29a56.51,56.51,0,0,1-5.68-10c28.77-3.63,44.93-.69,62,2.41C126.51,160.27,138.27,162.4,154,162.4Zm-38.8-25.29c-18.18-3.32-35.37-6.45-67.81-1.67a87.21,87.21,0,0,0,2.09,10.3c31.82-4.28,49.87-1,67.35,2.2s34,6.19,64.16,2.12a76.21,76.21,0,0,0,2.82-11A214.55,214.55,0,0,1,154,141.31C138.37,141.31,126.68,139.19,115.23,137.11Zm.24-18.47c-18.46-3.36-35.93-6.54-69.14-1.55,0,.6,0,1.2,0,1.81q0,4.53.3,8.76c33.53-4.89,52.08-1.5,70,1.76,18.27,3.33,35.57,6.49,68.35,1.59.33-3.41.52-7,.55-10.69a216.19,216.19,0,0,1-31.5,2.51C138.48,122.83,126.85,120.71,115.47,118.64Zm.7-18.42c17.51,3.19,35.57,6.48,68.2,1.74Q181,78.7,167.32,65.3q-18.25-18-51.5-17.94T64.44,65.3Q52,77.63,48.08,98.32C80.51,93.73,98.62,97,116.17,100.22Zm.23,13.29c18.45,3.36,35.9,6.55,69.11,1.55-.11-3.65-.37-7.17-.77-10.52A212.82,212.82,0,0,1,154.06,107c-15.49,0-27-2.11-38.36-4.17C98.21,99.6,80.17,96.31,47.63,101a100.25,100.25,0,0,0-1.12,10.8C80,106.91,98.51,110.26,116.4,113.51Z"/><path class="cls-2" d="M167.21,172.61Q149,190.45,115.82,190.43T64.44,172.5a52,52,0,0,1-5.72-6.73c26.33-2.55,42.57.42,58.37,3.29C131.62,171.7,145.51,174.23,167.21,172.61Zm-50.35-24.67c-17.48-3.19-35.53-6.48-67.35-2.2a70.44,70.44,0,0,0,3.53,10c28.77-3.63,44.93-.69,62,2.41,11.51,2.09,23.27,4.22,39,4.22a199.14,199.14,0,0,0,22-1.27,62.63,62.63,0,0,0,5-11.07C150.87,154.13,134.31,151.11,116.86,147.94Zm-.22-18.52c-18-3.26-36.5-6.65-70-1.76.19,2.68.45,5.27.81,7.78,32.44-4.78,49.63-1.65,67.81,1.67,11.45,2.08,23.14,4.2,38.8,4.2a214.55,214.55,0,0,0,29.81-2.25q.72-3.88,1.15-8.05C152.21,135.91,134.91,132.75,116.64,129.42Zm-.24-15.91c-17.89-3.25-36.37-6.6-69.89-1.7-.1,1.72-.16,3.49-.18,5.28,33.21-5,50.68-1.81,69.14,1.55,11.38,2.07,23,4.19,38.57,4.19a216.19,216.19,0,0,0,31.5-2.51c0-.47,0-.94,0-1.42,0-1.3,0-2.58-.05-3.84C152.3,120.06,134.85,116.87,116.4,113.51Zm-.7-10.73C127,104.84,138.57,107,154.06,107a212.82,212.82,0,0,0,30.68-2.41c-.12-.87-.22-1.73-.37-2.58-32.63,4.74-50.69,1.45-68.2-1.74s-35.66-6.49-68.09-1.9c-.17.89-.32,1.78-.45,2.69C80.17,96.31,98.21,99.6,115.7,102.78ZM246.45,84.34h-12.9v69.12h49.57V142.27H246.45ZM295,153.46h12.79V84.34H295ZM382.71,92.1q9.1,9,9.12,26.8t-9.12,26.8q-9.12,9-25.75,9t-25.69-9q-9.07-9-9.07-26.8t9.07-26.8q9.08-9,25.69-9T382.71,92.1Zm-4.09,25.79q0-11.79-5.54-17.83T357,94q-10.47,0-16,6t-5.54,17.83V120q0,11.79,5.49,17.78t16.07,6q10.68,0,16.17-6T378.62,120ZM421.27,100q5-6,15.42-5.95,7.76,0,12.45,4.13t4.68,11.69H467q0-8.76-4-14.76a24.34,24.34,0,0,0-10.83-9,39.21,39.21,0,0,0-15.72-3q-16.12,0-24.79,8.92T403,118.9q0,18.24,8.56,27t24.89,8.76q13.69,0,22.12-6.74T467,128.17h-12.7q0,7.46-4.73,11.54t-12.9,4.07q-10.47,0-15.47-5.89t-5-18v-2Q416.24,105.91,421.27,100ZM553,104.88H541V84.39H537.8V107.7H553Zm12,2.51a8.35,8.35,0,0,1-3.49.72,7.75,7.75,0,0,1-4.11-1.09c-1.2-.72-1.8-2-1.8-3.94a4.68,4.68,0,0,1,3.06-4.71,23.88,23.88,0,0,1,8.83-1.27v-2a3.15,3.15,0,0,0-.88-2.4,6.46,6.46,0,0,0-6.3,0,2.57,2.57,0,0,0-.94,2v.41h-2.89a6.22,6.22,0,0,1,0-.75,4.14,4.14,0,0,1,2-3.67,9.49,9.49,0,0,1,5.27-1.29,7.91,7.91,0,0,1,5.06,1.39,4.76,4.76,0,0,1,1.74,3.94v9.69a1.13,1.13,0,0,0,.33.9,1.29,1.29,0,0,0,.85.29H573v1.93a5.43,5.43,0,0,1-2.31.41,2.8,2.8,0,0,1-1.93-.69,3.46,3.46,0,0,1-1.06-1.86h-.24A6.07,6.07,0,0,1,565,107.39Zm-.19-2.31a4.75,4.75,0,0,0,1.94-1.61,4.48,4.48,0,0,0,.74-2.6V99.58a22.92,22.92,0,0,0-6.57.7,2.66,2.66,0,0,0-2.19,2.63,2.37,2.37,0,0,0,.9,2.09,4.66,4.66,0,0,0,2.67.63A5.85,5.85,0,0,0,564.78,105.08Zm15.94,2.31a5.65,5.65,0,0,1-2.32-2.1h-.21l-.37,2.41h-2.24V83.13h3v8.73h.2A5.12,5.12,0,0,1,581,90a8,8,0,0,1,3.23-.58,6,6,0,0,1,5,2.33q1.81,2.32,1.81,7c0,3.2-.61,5.55-1.83,7.07a6.33,6.33,0,0,1-5.23,2.28A7.15,7.15,0,0,1,580.72,107.39Zm2.47-1.76a5.11,5.11,0,0,0,2.75-.65,3.76,3.76,0,0,0,1.5-2.1,13.6,13.6,0,0,0,.47-4v-.14a14,14,0,0,0-.47-4,3.82,3.82,0,0,0-1.52-2.16,5,5,0,0,0-2.73-.66,3.88,3.88,0,0,0-3.5,1.73,9.53,9.53,0,0,0-1.12,5.13v.14a9.27,9.27,0,0,0,1.1,5A3.9,3.9,0,0,0,583.19,105.63Zm12.47.18q-2.08-2.28-2.08-7t2.08-7.05q2.07-2.29,6.18-2.29T608,91.71q2.07,2.3,2.07,7.05t-2.07,7q-2.09,2.3-6.19,2.3T595.66,105.81Zm1-6.91c0,2.38.4,4.09,1.22,5.15a5.7,5.7,0,0,0,7.88,0c.82-1.06,1.23-2.77,1.23-5.15v-.27q0-3.57-1.23-5.15a5.7,5.7,0,0,0-7.88,0c-.82,1-1.22,2.77-1.22,5.15Zm25.43-6.32V89.69a4.29,4.29,0,0,0-1.6-.27,3.94,3.94,0,0,0-2.68.88,5.5,5.5,0,0,0-1.53,2.21h-.2l-.34-2.68h-2.28V107.7h3V97.13a4.39,4.39,0,0,1,1.24-3.45,4.59,4.59,0,0,1,3.14-1.1Zm14.82,14.7a3.59,3.59,0,0,1-1.06-1.86h-.23a6.1,6.1,0,0,1-2.5,2,8.3,8.3,0,0,1-3.48.72,7.78,7.78,0,0,1-4.12-1.09c-1.2-.72-1.8-2-1.8-3.94a4.68,4.68,0,0,1,3.06-4.71,23.93,23.93,0,0,1,8.84-1.27v-2a3.15,3.15,0,0,0-.89-2.4,6.46,6.46,0,0,0-6.3,0,2.6,2.6,0,0,0-.94,2v.41h-2.88a4.31,4.31,0,0,1,0-.75,4.14,4.14,0,0,1,2-3.67,9.52,9.52,0,0,1,5.27-1.29,7.91,7.91,0,0,1,5.06,1.39,4.76,4.76,0,0,1,1.74,3.94v9.69a1.1,1.1,0,0,0,.34.9,1.27,1.27,0,0,0,.85.29h1.36v1.93a5.43,5.43,0,0,1-2.31.41A2.81,2.81,0,0,1,636.93,107.28Zm-1.29-7.7a23,23,0,0,0-6.58.7,2.66,2.66,0,0,0-2.19,2.63,2.37,2.37,0,0,0,.9,2.09,4.66,4.66,0,0,0,2.67.63,5.85,5.85,0,0,0,2.51-.55,4.68,4.68,0,0,0,1.94-1.61,4.41,4.41,0,0,0,.75-2.6ZM644,104.3a4.22,4.22,0,0,0,.85,2.69,3.19,3.19,0,0,0,2.68,1.08,7.19,7.19,0,0,0,1.33-.13,5.33,5.33,0,0,0,1.15-.34v-2h-1.53c-1,0-1.49-.53-1.49-1.6V92.31h3V89.83h-3v-5h-2.31l-.65,5h-2.21v2.48H644Zm15.83,3.81c-2.74,0-4.81-.77-6.19-2.3s-2.07-3.87-2.07-7,.69-5.52,2.07-7.05,3.45-2.29,6.19-2.29,4.8.76,6.18,2.29,2.08,3.88,2.08,7.05-.7,5.53-2.08,7S662.53,108.11,659.79,108.11Zm-3.94-4.06a5.7,5.7,0,0,0,7.88,0c.82-1.06,1.22-2.77,1.22-5.15v-.27c0-2.38-.4-4.1-1.22-5.15a5.7,5.7,0,0,0-7.88,0q-1.23,1.58-1.23,5.15v.27C654.62,101.28,655,103,655.85,104.05Zm8.93-20.82,0-.1h-3.26l-2.93,4.49h2.55Zm14,9.35h1.26V89.69a4.32,4.32,0,0,0-1.6-.27,3.94,3.94,0,0,0-2.68.88,5.5,5.5,0,0,0-1.53,2.21H674l-.34-2.68h-2.27V107.7h3V97.13a4.39,4.39,0,0,1,1.24-3.45A4.55,4.55,0,0,1,678.8,92.58Zm6.86-9.45h-2.95v3.23h2.95Zm0,6.7h-3V107.7h3Zm5.48,16q-2.07-2.28-2.07-7t2.07-7.05q2.09-2.29,6.19-2.29t6.18,2.29c1.38,1.53,2.08,3.88,2.08,7.05s-.7,5.53-2.08,7-3.44,2.3-6.18,2.3S692.57,107.34,691.18,105.81Zm1-6.91c0,2.38.41,4.09,1.23,5.15a5.7,5.7,0,0,0,7.88,0c.82-1.06,1.22-2.77,1.22-5.15v-.27c0-2.38-.4-4.1-1.22-5.15a5.7,5.7,0,0,0-7.88,0q-1.23,1.58-1.23,5.15Zm33.68,9.21a6.31,6.31,0,0,1-5.23-2.28c-1.23-1.52-1.84-3.87-1.84-7.07s.61-5.46,1.82-7a6,6,0,0,1,5-2.33,8,8,0,0,1,3.23.58,5.12,5.12,0,0,1,2.21,1.86h.2V83.13h3V107.7H732l-.38-2.41h-.2a5.67,5.67,0,0,1-2.33,2.1A7.08,7.08,0,0,1,725.88,108.11Zm-2-3.13a5.12,5.12,0,0,0,2.76.65,3.87,3.87,0,0,0,3.51-1.7,9.26,9.26,0,0,0,1.11-5v-.14a9.53,9.53,0,0,0-1.12-5.13,3.89,3.89,0,0,0-3.5-1.73,5,5,0,0,0-2.74.66,3.81,3.81,0,0,0-1.51,2.16,13.66,13.66,0,0,0-.48,4v.14a13.22,13.22,0,0,0,.48,4A3.79,3.79,0,0,0,723.87,105Zm15.94.85c-1.41-1.52-2.11-3.87-2.11-7.07s.7-5.55,2.11-7.07,3.54-2.27,6.42-2.27c2.58,0,4.52.68,5.8,2S754,95.05,754,98.08v1.5H740.79a7.46,7.46,0,0,0,1.48,4.57,5,5,0,0,0,4,1.48,5.67,5.67,0,0,0,3.47-1,3.51,3.51,0,0,0,1.32-3H754a5.75,5.75,0,0,1-2.16,4.81,8.79,8.79,0,0,1-5.56,1.68Q741.91,108.11,739.81,105.83Zm1.05-8.73h10q0-5.2-4.59-5.2a5.34,5.34,0,0,0-3.82,1.22A6.21,6.21,0,0,0,740.86,97.1Zm31.57-12.71H769.2V107.7h3.23Zm16.43,23.31h3V95.5c0-2.13-.48-3.67-1.44-4.64a5.59,5.59,0,0,0-4.13-1.44,6.82,6.82,0,0,0-6,2.82H780l-.34-2.41h-2.28V107.7h3V97.13a5.74,5.74,0,0,1,.65-2.78,4.47,4.47,0,0,1,1.73-1.82,4.68,4.68,0,0,1,2.38-.63,4.07,4.07,0,0,1,2.75.83,3.81,3.81,0,0,1,1,3Zm9.3-.32a10.35,10.35,0,0,0,4.13.73,9.13,9.13,0,0,0,5.29-1.38,4.7,4.7,0,0,0,2-4.13,4.17,4.17,0,0,0-.94-2.83,5.74,5.74,0,0,0-2.26-1.6,29.32,29.32,0,0,0-3.43-1.07c-1-.25-1.81-.48-2.38-.68a4.51,4.51,0,0,1-1.43-.82,1.66,1.66,0,0,1-.57-1.29,2.22,2.22,0,0,1,.81-1.68,4.3,4.3,0,0,1,2.86-.73,4.65,4.65,0,0,1,3,.78,2.45,2.45,0,0,1,.94,2V95h2.92l0-.65a4.21,4.21,0,0,0-.76-2.46,5.19,5.19,0,0,0-2.26-1.77,10.21,10.21,0,0,0-8.72.71,4.36,4.36,0,0,0-1.92,3.73,3.79,3.79,0,0,0,.87,2.59,5.52,5.52,0,0,0,2.11,1.52,24.72,24.72,0,0,0,3.21,1,23.47,23.47,0,0,1,2.58.76,4.61,4.61,0,0,1,1.6,1,2.14,2.14,0,0,1,.64,1.61,2.16,2.16,0,0,1-1.14,1.95,5.33,5.33,0,0,1-2.87.7,5.94,5.94,0,0,1-3.26-.8,2.64,2.64,0,0,1-1.26-2.39v-.34h-3s0,.08,0,.18,0,.29,0,.57a4.65,4.65,0,0,0,.78,2.58A5.58,5.58,0,0,0,798.16,107.38Zm15.5-3.08a4.22,4.22,0,0,0,.85,2.69,3.19,3.19,0,0,0,2.68,1.08,7.19,7.19,0,0,0,1.33-.13,5.33,5.33,0,0,0,1.15-.34v-2h-1.53c-1,0-1.49-.53-1.49-1.6V92.31h3V89.83h-3v-5h-2.31l-.65,5h-2.21v2.48h2.18Zm11.76-7.17a4.39,4.39,0,0,1,1.24-3.45,4.57,4.57,0,0,1,3.14-1.1h1.26V89.69a4.32,4.32,0,0,0-1.6-.27,3.94,3.94,0,0,0-2.68.88,5.5,5.5,0,0,0-1.53,2.21H825l-.34-2.68h-2.27V107.7h3Zm19.83,8.16h.24l.34,2.41h2.28V89.83h-3v10.56a5.75,5.75,0,0,1-.64,2.79,4.6,4.6,0,0,1-1.73,1.82,4.68,4.68,0,0,1-2.38.63,4.12,4.12,0,0,1-2.76-.83,3.85,3.85,0,0,1-1-3v-12h-3V102q0,3.19,1.45,4.63a5.56,5.56,0,0,0,4.13,1.45A6.83,6.83,0,0,0,845.25,105.29Zm20.53,2.41V97.13a5.62,5.62,0,0,1,1.23-3.8,3.79,3.79,0,0,1,3-1.43,3.39,3.39,0,0,1,2.35.76,3.55,3.55,0,0,1,.84,2.7V107.7h3V94.82q0-5.4-5.27-5.4a7,7,0,0,0-3.15.73,6.11,6.11,0,0,0-2.39,2.09h-.21q-1.16-2.82-4.62-2.82a6,6,0,0,0-5.37,2.82H855l-.34-2.41h-2.28V107.7h3V97.13a6.22,6.22,0,0,1,.59-2.78,4.5,4.5,0,0,1,1.58-1.82,3.94,3.94,0,0,1,2.15-.63,3.27,3.27,0,0,1,2.31.76,3.63,3.63,0,0,1,.81,2.7V107.7Zm22.33.41q-4.32,0-6.43-2.28c-1.4-1.52-2.1-3.87-2.1-7.07s.7-5.55,2.1-7.07,3.55-2.27,6.43-2.27q3.87,0,5.79,2t1.92,6.61v1.5H882.67a7.34,7.34,0,0,0,1.48,4.57,5,5,0,0,0,4,1.48,5.63,5.63,0,0,0,3.46-1,3.49,3.49,0,0,0,1.33-3h2.92a5.75,5.75,0,0,1-2.16,4.81A8.78,8.78,0,0,1,888.11,108.11Zm-5.37-11h10q0-5.2-4.58-5.2a5.37,5.37,0,0,0-3.83,1.22A6.21,6.21,0,0,0,882.74,97.1Zm25.49-7.68a6.85,6.85,0,0,0-6,2.82H902l-.34-2.41h-2.27V107.7h3V97.13a5.74,5.74,0,0,1,.64-2.78,4.5,4.5,0,0,1,1.74-1.82,4.63,4.63,0,0,1,2.38-.63,4.09,4.09,0,0,1,2.75.83,3.84,3.84,0,0,1,.95,3v12h3V95.5c0-2.13-.48-3.67-1.44-4.64A5.61,5.61,0,0,0,908.23,89.42Zm13.24-4.56h-2.31l-.64,5h-2.21v2.48h2.17v12a4.28,4.28,0,0,0,.85,2.69,3.21,3.21,0,0,0,2.69,1.08,7.09,7.09,0,0,0,1.32-.13,5.43,5.43,0,0,0,1.16-.34v-2H923c-1,0-1.5-.53-1.5-1.6V92.31h3V89.83h-3Zm17.07,20.56a6.07,6.07,0,0,1-2.49,2,8.35,8.35,0,0,1-3.49.72,7.75,7.75,0,0,1-4.11-1.09c-1.2-.72-1.8-2-1.8-3.94a4.68,4.68,0,0,1,3.06-4.71,23.88,23.88,0,0,1,8.83-1.27v-2a3.15,3.15,0,0,0-.88-2.4,6.46,6.46,0,0,0-6.3,0,2.57,2.57,0,0,0-.94,2v.41h-2.89a6.22,6.22,0,0,1,0-.75,4.14,4.14,0,0,1,2-3.67,9.49,9.49,0,0,1,5.27-1.29,7.92,7.92,0,0,1,5.06,1.39,4.75,4.75,0,0,1,1.73,3.94v9.69a1.13,1.13,0,0,0,.34.9,1.29,1.29,0,0,0,.85.29h1.36v1.93a5.43,5.43,0,0,1-2.31.41,2.84,2.84,0,0,1-1.94-.69,3.51,3.51,0,0,1-1.05-1.86Zm0-4.55V99.58a22.92,22.92,0,0,0-6.57.7,2.66,2.66,0,0,0-2.19,2.63,2.37,2.37,0,0,0,.9,2.09,4.64,4.64,0,0,0,2.66.63,5.86,5.86,0,0,0,2.52-.55,4.75,4.75,0,0,0,1.94-1.61A4.48,4.48,0,0,0,938.54,100.87Zm11.16-7.36a4.18,4.18,0,0,1,3.64-1.61A3.87,3.87,0,0,1,956.48,93a5.52,5.52,0,0,1,.87,3.48h3.06a7.31,7.31,0,0,0-1.7-5.26c-1.14-1.18-2.92-1.77-5.37-1.77q-4.05,0-6,2.27t-1.92,7.07a11.8,11.8,0,0,0,1.5,6.54,6.33,6.33,0,0,0,4.66,2.71l-.45,2.34h1.74a1.82,1.82,0,0,1,1,.21.76.76,0,0,1-.06,1.24,2.4,2.4,0,0,1-1,.18h-3.4v1.67a17.79,17.79,0,0,0,3.23.27,6.15,6.15,0,0,0,2.79-.61,2.2,2.2,0,0,0,1.22-2.14c0-1.34-1-2.08-3.13-2.21l.14-.85a6.65,6.65,0,0,0,5.08-2.09,7.4,7.4,0,0,0,1.65-5h-2.89a5.15,5.15,0,0,1-1,3.42,4,4,0,0,1-3.21,1.14,4.19,4.19,0,0,1-3.67-1.57q-1.12-1.56-1.12-5.16v-.14Q948.55,95.13,949.7,93.51Zm18.5-7.9a7.55,7.55,0,0,1,2.37.51c.57.18,1,.32,1.45.41a5.54,5.54,0,0,0,1.24.14,2.48,2.48,0,0,0,2.17-1,4.23,4.23,0,0,0,.72-2.53h-2.21c-.07.7-.39,1.05-1,1.05a7.6,7.6,0,0,1-2.38-.51c-.57-.18-1.05-.31-1.45-.4a5.54,5.54,0,0,0-1.24-.14,2.5,2.5,0,0,0-2.17,1,4.26,4.26,0,0,0-.71,2.54h2.2C967.31,86,967.63,85.61,968.2,85.61Zm10.63,20h1.36v1.93a5.43,5.43,0,0,1-2.31.41,2.83,2.83,0,0,1-1.94-.69,3.51,3.51,0,0,1-1.05-1.86h-.24a6,6,0,0,1-2.5,2,8.27,8.27,0,0,1-3.48.72,7.75,7.75,0,0,1-4.11-1.09c-1.2-.72-1.8-2-1.8-3.94a4.68,4.68,0,0,1,3.06-4.71,23.88,23.88,0,0,1,8.83-1.27v-2a3.15,3.15,0,0,0-.88-2.4,6.48,6.48,0,0,0-6.31,0,2.59,2.59,0,0,0-.93,2v.41h-2.89a6.22,6.22,0,0,1,0-.75,4.12,4.12,0,0,1,2-3.67,9.49,9.49,0,0,1,5.27-1.29,7.92,7.92,0,0,1,5.06,1.39,4.78,4.78,0,0,1,1.73,3.94v9.69a1.13,1.13,0,0,0,.34.9A1.29,1.29,0,0,0,978.83,105.63Zm-4.18-6a22.92,22.92,0,0,0-6.57.7,2.67,2.67,0,0,0-2.2,2.63,2.36,2.36,0,0,0,.91,2.09,4.62,4.62,0,0,0,2.66.63,5.9,5.9,0,0,0,2.52-.55,4.65,4.65,0,0,0,1.93-1.61,4.41,4.41,0,0,0,.75-2.6Zm8.91,6.23q-2.07-2.28-2.07-7t2.07-7.05c1.38-1.53,3.45-2.29,6.19-2.29s4.8.76,6.18,2.29S998,95.59,998,98.76s-.7,5.53-2.08,7-3.44,2.3-6.18,2.3S984.94,107.34,983.56,105.81Zm1-6.91c0,2.38.41,4.09,1.23,5.15a5.7,5.7,0,0,0,7.88,0c.82-1.06,1.22-2.77,1.22-5.15v-.27c0-2.38-.4-4.1-1.22-5.15a5.7,5.7,0,0,0-7.88,0q-1.23,1.58-1.23,5.15ZM557,127.8q3,3,3,9t-3,9c-2,2-4.9,3.06-8.61,3.06s-6.55-1-8.58-3-3-5-3-9,1-7,3-9,4.89-3,8.58-3S554.93,125.77,557,127.8Zm-.29,9q0-4.86-2.17-7.08a9.55,9.55,0,0,0-12.27,0c-1.42,1.48-2.15,3.84-2.17,7.08V137q0,4.78,2.14,7a9.77,9.77,0,0,0,12.33,0q2.15-2.19,2.14-7Zm10.58-2.53a4.18,4.18,0,0,1,3.64-1.61,3.85,3.85,0,0,1,3.14,1.07,5.52,5.52,0,0,1,.87,3.48h3.05a7.35,7.35,0,0,0-1.69-5.27q-1.71-1.76-5.37-1.76-4.05,0-6,2.27T563,139.54q0,4.83,1.91,7.09c1.26,1.5,3.26,2.26,6,2.26,2.4,0,4.18-.67,5.33-2a7.39,7.39,0,0,0,1.73-5.05h-2.88a5.21,5.21,0,0,1-1,3.42,4,4,0,0,1-3.21,1.14,4.18,4.18,0,0,1-3.67-1.57q-1.12-1.56-1.13-5.16v-.14Q566.08,135.91,567.24,134.29Zm27.42-2c1.28,1.37,1.92,3.58,1.92,6.61v1.5H583.43a7.46,7.46,0,0,0,1.48,4.57,5,5,0,0,0,4,1.48,5.67,5.67,0,0,0,3.47-1,3.52,3.52,0,0,0,1.32-3h2.92a5.77,5.77,0,0,1-2.15,4.81,8.79,8.79,0,0,1-5.56,1.68q-4.32,0-6.42-2.28c-1.41-1.52-2.11-3.87-2.11-7.07s.7-5.55,2.11-7.07,3.54-2.27,6.42-2.27Q592.74,130.2,594.66,132.25Zm-1.2,5.63q0-5.2-4.59-5.2a5.34,5.34,0,0,0-3.82,1.22,6.21,6.21,0,0,0-1.55,4Zm21.78,8.53h1.36v1.93a5.43,5.43,0,0,1-2.31.41,2.76,2.76,0,0,1-1.93-.7,3.39,3.39,0,0,1-1.06-1.85h-.24a6.07,6.07,0,0,1-2.49,2,8.35,8.35,0,0,1-3.49.72A7.84,7.84,0,0,1,601,147.8c-1.2-.72-1.8-2-1.8-3.94a4.68,4.68,0,0,1,3.06-4.71,23.88,23.88,0,0,1,8.83-1.27v-2a3.13,3.13,0,0,0-.88-2.4,6.46,6.46,0,0,0-6.3,0,2.57,2.57,0,0,0-.94,2v.41h-2.89a6.22,6.22,0,0,1,0-.75,4.14,4.14,0,0,1,2-3.67,9.49,9.49,0,0,1,5.27-1.29,7.91,7.91,0,0,1,5.06,1.39,4.75,4.75,0,0,1,1.73,3.94v9.69a1.13,1.13,0,0,0,.34.9A1.29,1.29,0,0,0,615.24,146.41Zm-4.18-6a23.36,23.36,0,0,0-6.57.69,2.68,2.68,0,0,0-2.19,2.64,2.37,2.37,0,0,0,.9,2.09,4.64,4.64,0,0,0,2.66.63,5.86,5.86,0,0,0,2.52-.55,4.75,4.75,0,0,0,1.94-1.61,4.48,4.48,0,0,0,.74-2.6Zm17-10.16a6.84,6.84,0,0,0-6,2.82h-.24l-.34-2.42h-2.27v17.88h3V137.91a5.8,5.8,0,0,1,.64-2.79,4.53,4.53,0,0,1,1.74-1.81,4.62,4.62,0,0,1,2.37-.63,4.12,4.12,0,0,1,2.76.83,3.84,3.84,0,0,1,1,3v12h3v-12.2q0-3.19-1.45-4.64A5.59,5.59,0,0,0,628.05,130.2Zm23.29,2.29q2.08,2.3,2.08,7t-2.08,7.05q-2.07,2.29-6.18,2.3t-6.19-2.3q-2.07-2.29-2.07-7.05t2.07-7q2.09-2.3,6.19-2.29T651.34,132.49Zm-1,6.92c0-2.38-.4-4.1-1.22-5.15a5.7,5.7,0,0,0-7.88,0q-1.23,1.58-1.23,5.15v.27c0,2.38.41,4.09,1.23,5.15a5.7,5.7,0,0,0,7.88,0c.82-1.06,1.22-2.77,1.22-5.15Zm21.12,7a4.27,4.27,0,0,1,1.22,3.08,5.66,5.66,0,0,1-.57,2.48,4.62,4.62,0,0,1-1.86,1.94,6.35,6.35,0,0,1-3.21.74h-7.2a5.84,5.84,0,0,1-3.42-1,3.75,3.75,0,0,1-1.44-3.31,3.81,3.81,0,0,1,2.89-3.81,3.92,3.92,0,0,1-1.34-1.14,2.54,2.54,0,0,1-.53-1.61,2.32,2.32,0,0,1,.93-2,5.88,5.88,0,0,1,2.06-1,5.94,5.94,0,0,1-1.77-2,5.92,5.92,0,0,1,1.29-7.05,8.11,8.11,0,0,1,5.3-1.58,9,9,0,0,1,3.4.61,4.21,4.21,0,0,0,2.59-3.09h2.85a4.26,4.26,0,0,1-.93,2.75,4.48,4.48,0,0,1-2.54,1.53,5.8,5.8,0,0,1,0,8.65,8.23,8.23,0,0,1-5.32,1.58h-2.85a2.17,2.17,0,0,0-1.41.4,1.32,1.32,0,0,0-.49,1.06,1.29,1.29,0,0,0,.49,1.05,2.17,2.17,0,0,0,1.41.41h7.17A4.39,4.39,0,0,1,671.44,146.42Zm-11.89-10.21a3.5,3.5,0,0,0,1.08,2.74,5.75,5.75,0,0,0,6.39,0,3.47,3.47,0,0,0,1.09-2.74,3.43,3.43,0,0,0-1.09-2.73,5.75,5.75,0,0,0-6.39,0A3.46,3.46,0,0,0,659.55,136.21ZM669.71,150a2.19,2.19,0,0,0-.6-1.62,2.14,2.14,0,0,0-1.58-.59h-7.44a2.08,2.08,0,0,0-1.56.59A2.22,2.22,0,0,0,658,150a2.26,2.26,0,0,0,.58,1.63,2,2,0,0,0,1.56.61h7a2.84,2.84,0,0,0,1.87-.61A2,2,0,0,0,669.71,150Zm10-18.93a5.5,5.5,0,0,0-1.53,2.21H678l-.34-2.69h-2.28v17.88h3V137.91a4.39,4.39,0,0,1,1.24-3.45,4.57,4.57,0,0,1,3.14-1.1H684v-2.89a4.29,4.29,0,0,0-1.6-.27A3.94,3.94,0,0,0,679.74,131.08Zm12.5-2.68h2.55l3.67-4.39,0-.1h-3.26Zm9.49,18h1.36v1.93a5.45,5.45,0,0,1-2.32.41,2.76,2.76,0,0,1-1.93-.7,3.45,3.45,0,0,1-1.06-1.85h-.23a6.17,6.17,0,0,1-2.5,2,8.34,8.34,0,0,1-3.48.72,7.85,7.85,0,0,1-4.12-1.09c-1.2-.72-1.8-2-1.8-3.94a4.68,4.68,0,0,1,3.06-4.71,23.9,23.9,0,0,1,8.84-1.27v-2a3.14,3.14,0,0,0-.89-2.4,6.46,6.46,0,0,0-6.3,0,2.6,2.6,0,0,0-.94,2v.41h-2.88a4.31,4.31,0,0,1,0-.75,4.14,4.14,0,0,1,2-3.67,9.52,9.52,0,0,1,5.27-1.29,7.91,7.91,0,0,1,5.06,1.39,4.76,4.76,0,0,1,1.74,3.94v9.69a1.1,1.1,0,0,0,.34.9A1.27,1.27,0,0,0,701.73,146.41Zm-4.18-6a23.39,23.39,0,0,0-6.58.69,2.68,2.68,0,0,0-2.19,2.64,2.37,2.37,0,0,0,.9,2.09,4.66,4.66,0,0,0,2.67.63,5.85,5.85,0,0,0,2.51-.55,4.75,4.75,0,0,0,1.94-1.61,4.41,4.41,0,0,0,.75-2.6Zm17.36,8.12h3V130.6h-3Zm0-21.24h3v-3.33h-3Zm-4.92-3.6a3.51,3.51,0,0,0-3,1.17,4.74,4.74,0,0,0-.89,2.94v2.85H703.5v2.49h2.61v15.39h3V133.09h3.44V130.6H709.1v-2.85a1.46,1.46,0,0,1,1.67-1.63h1.77v-2.07a6.56,6.56,0,0,0-1.18-.29A8,8,0,0,0,710,123.64Zm15.78,10.65a4.17,4.17,0,0,1,3.63-1.61,3.86,3.86,0,0,1,3.15,1.07,5.52,5.52,0,0,1,.86,3.48h3.06a7.31,7.31,0,0,0-1.7-5.27q-1.69-1.76-5.37-1.76-4,0-6,2.27t-1.92,7.07q0,4.83,1.9,7.09c1.27,1.5,3.27,2.26,6,2.26,2.41,0,4.18-.67,5.34-2a7.39,7.39,0,0,0,1.73-5.05h-2.89a5.21,5.21,0,0,1-1,3.42,4,4,0,0,1-3.22,1.14,4.2,4.2,0,0,1-3.67-1.57c-.74-1-1.12-2.76-1.12-5.16v-.14Q724.61,135.91,725.77,134.29Zm29.13,12.12h1.36v1.93a5.43,5.43,0,0,1-2.31.41,2.79,2.79,0,0,1-1.94-.7,3.44,3.44,0,0,1-1-1.85h-.24a6.1,6.1,0,0,1-2.5,2,8.27,8.27,0,0,1-3.48.72,7.84,7.84,0,0,1-4.11-1.09c-1.21-.72-1.81-2-1.81-3.94a4.68,4.68,0,0,1,3.06-4.71,23.93,23.93,0,0,1,8.84-1.27v-2a3.14,3.14,0,0,0-.89-2.4,4.68,4.68,0,0,0-3.19-.83,4.73,4.73,0,0,0-3.11.81,2.59,2.59,0,0,0-.93,2v.41h-2.89a5.66,5.66,0,0,1,0-.75,4.13,4.13,0,0,1,2-3.67,9.46,9.46,0,0,1,5.26-1.29,8,8,0,0,1,5.07,1.39,4.78,4.78,0,0,1,1.73,3.94v9.69a1.1,1.1,0,0,0,.34.9A1.29,1.29,0,0,0,754.9,146.41Zm-4.18-6a23.44,23.44,0,0,0-6.58.69,2.68,2.68,0,0,0-2.19,2.64,2.37,2.37,0,0,0,.9,2.09,4.66,4.66,0,0,0,2.67.63,5.85,5.85,0,0,0,2.51-.55,4.68,4.68,0,0,0,1.94-1.61,4.41,4.41,0,0,0,.75-2.6Zm19.67,12.8H773V122.71h-2.65Zm23.45-23.47q1.93-2.17,6-2.18a7.32,7.32,0,0,1,5,1.55,5.67,5.67,0,0,1,1.78,4.54h3.3a8.06,8.06,0,0,0-2.74-6.58,11.05,11.05,0,0,0-7.29-2.26q-5.64,0-8.49,3t-2.86,9c0,4,1,7.05,2.86,9.06s4.73,3,8.49,3a11.28,11.28,0,0,0,7.31-2.21q2.71-2.2,2.72-6.56h-3.16a5.55,5.55,0,0,1-1.82,4.49,7.61,7.61,0,0,1-5.05,1.52q-4.14,0-6.08-2.19t-1.94-7.12v-.06C791.89,133.49,792.55,131.14,793.84,129.69Zm39.45-1.89q3,3,3,9t-3,9q-3,3.06-8.61,3.06c-3.7,0-6.56-1-8.58-3s-3-5-3-9,1-7,3-9,4.88-3,8.58-3S831.26,125.77,833.29,127.8Zm-.29,9q0-4.86-2.17-7.08a9.55,9.55,0,0,0-12.27,0q-2.14,2.22-2.17,7.08V137q0,4.78,2.14,7a9.77,9.77,0,0,0,12.33,0q2.14-2.19,2.14-7Zm24.32-9.72A7.26,7.26,0,0,1,852,139.54h-8.12v8.94H840.6V125.17H852A7.12,7.12,0,0,1,857.32,127.1Zm-1.39,5.2a4.45,4.45,0,0,0-1.06-3.19,4,4,0,0,0-3.09-1.12h-7.95v8.73h7.95a4,4,0,0,0,3-1.19A4.55,4.55,0,0,0,855.93,132.3Zm23.61-5.2a8.09,8.09,0,0,1-.09,10.45,7,7,0,0,1-5.28,2h-8.12v8.94h-3.23V125.17h11.35A7.13,7.13,0,0,1,879.54,127.1Zm-1.39,5.2a4.5,4.5,0,0,0-1.06-3.19A4,4,0,0,0,874,128h-8v8.73h8a3.91,3.91,0,0,0,3-1.19A4.51,4.51,0,0,0,878.15,132.3ZM888.27,138h13.21v-2.82H888.27V128H903v-2.82H885v23.31h18.14v-2.82H888.27Zm30.65,15.18h2.65V122.71h-2.65Zm35.17-13.11a5.9,5.9,0,0,1-1.67,4.52,6.64,6.64,0,0,1-4.72,1.56,6.56,6.56,0,0,1-4.67-1.54,5.92,5.92,0,0,1-1.65-4.54V125.17h-3.23v14.71q0,4.59,2.48,6.8c1.66,1.47,4,2.21,7.07,2.21s5.48-.74,7.14-2.21,2.48-3.74,2.48-6.8V125.17h-3.23Zm8.54,8.43h3.23V138.22h12.06V135.4H965.86V128h13.28v-2.82H962.63Zm35.29-10.09,5.37,10.09h-3.6l-5.07-9.62h-8.56v9.62h-3.23V125.17H995a7.42,7.42,0,0,1,5.37,1.8,6.37,6.37,0,0,1,1.87,4.82,7.34,7.34,0,0,1-1.14,4.12A6.3,6.3,0,0,1,997.92,138.39Zm-.1-3.47a4.17,4.17,0,0,0,1.12-3.09,3.74,3.74,0,0,0-1.05-2.84,4.35,4.35,0,0,0-3.1-1h-8.73v8h8.73A4.09,4.09,0,0,0,997.82,134.92Zm17.49-9.75v16.72a4.87,4.87,0,0,1-.89,3.17,3.14,3.14,0,0,1-2.58,1.07,3.35,3.35,0,0,1-2.55-.93,3.89,3.89,0,0,1-.88-2.77v-1h-3.23v.85a6.62,6.62,0,0,0,1.73,4.93,6.77,6.77,0,0,0,4.93,1.7,6.56,6.56,0,0,0,5-1.8,7.44,7.44,0,0,0,1.74-5.37V125.17ZM501.6,162.06h2.65V75.74H501.6Z"/></g></svg>