<svg xmlns="http://www.w3.org/2000/svg" viewBox="0 0 1064.85 236.75"><defs><style>.cls-1{fill:#143c85;}</style></defs><g id="Logos"><path class="cls-1" d="M537.8,84.39H541v20.49h12v2.82H537.8ZM557.37,107c-1.2-.72-1.8-2-1.8-3.94a4.68,4.68,0,0,1,3.06-4.71,23.88,23.88,0,0,1,8.83-1.27v-2a3.15,3.15,0,0,0-.88-2.4,6.46,6.46,0,0,0-6.3,0,2.57,2.57,0,0,0-.94,2v.41h-2.89a6.22,6.22,0,0,1,0-.75,4.14,4.14,0,0,1,2-3.67,9.49,9.49,0,0,1,5.27-1.29,7.91,7.91,0,0,1,5.06,1.39,4.76,4.76,0,0,1,1.74,3.94v9.69a1.13,1.13,0,0,0,.33.9,1.29,1.29,0,0,0,.85.29H573v1.93a5.43,5.43,0,0,1-2.31.41,2.8,2.8,0,0,1-1.93-.69,3.46,3.46,0,0,1-1.06-1.86h-.24a6.17,6.17,0,0,1-2.49,2,8.5,8.5,0,0,1-3.49.71A7.75,7.75,0,0,1,557.37,107Zm7.41-1.94a4.75,4.75,0,0,0,1.94-1.61,4.48,4.48,0,0,0,.74-2.6V99.58a22.92,22.92,0,0,0-6.57.7,2.66,2.66,0,0,0-2.19,2.63,2.37,2.37,0,0,0,.9,2.09,4.66,4.66,0,0,0,2.67.63A5.85,5.85,0,0,0,564.78,105.08Zm15.94,2.32a5.74,5.74,0,0,1-2.32-2.11h-.21l-.37,2.41h-2.24V83.13h3v8.73h.2A5.12,5.12,0,0,1,581,90a8,8,0,0,1,3.23-.58,6,6,0,0,1,5,2.33q1.81,2.32,1.81,7c0,3.2-.61,5.55-1.83,7.07a6.33,6.33,0,0,1-5.23,2.28A7.28,7.28,0,0,1,580.72,107.4Zm5.22-2.42a3.76,3.76,0,0,0,1.5-2.1,13.6,13.6,0,0,0,.47-4v-.14a14,14,0,0,0-.47-4,3.82,3.82,0,0,0-1.52-2.16,5,5,0,0,0-2.73-.66,3.88,3.88,0,0,0-3.5,1.73,9.53,9.53,0,0,0-1.12,5.13v.14a9.27,9.27,0,0,0,1.1,5,3.9,3.9,0,0,0,3.52,1.7A5.11,5.11,0,0,0,585.94,105Zm9.72.83q-2.08-2.28-2.08-7t2.08-7.05q2.07-2.29,6.18-2.29T608,91.71q2.07,2.3,2.07,7.05t-2.07,7q-2.09,2.3-6.19,2.3T595.66,105.81Zm10.12-1.76c.82-1.06,1.23-2.77,1.23-5.15v-.27q0-3.57-1.23-5.15a5.7,5.7,0,0,0-7.88,0c-.82,1-1.22,2.77-1.22,5.15v.27c0,2.38.4,4.09,1.22,5.15a5.7,5.7,0,0,0,7.88,0Zm7.7-14.22h2.28l.34,2.68h.2a5.5,5.5,0,0,1,1.53-2.21,3.94,3.94,0,0,1,2.68-.88,4.29,4.29,0,0,1,1.6.27v2.89h-1.26a4.59,4.59,0,0,0-3.14,1.1,4.39,4.39,0,0,0-1.24,3.45V107.7h-3ZM625.54,107c-1.2-.72-1.8-2-1.8-3.94a4.68,4.68,0,0,1,3.06-4.71,23.9,23.9,0,0,1,8.84-1.27v-2a3.15,3.15,0,0,0-.89-2.4,6.46,6.46,0,0,0-6.3,0,2.6,2.6,0,0,0-.94,2v.41h-2.88a4.31,4.31,0,0,1,0-.75,4.14,4.14,0,0,1,2-3.67,9.52,9.52,0,0,1,5.27-1.29,7.91,7.91,0,0,1,5.06,1.39,4.76,4.76,0,0,1,1.74,3.94v9.69a1.1,1.1,0,0,0,.34.9,1.27,1.27,0,0,0,.85.29h1.36v1.93a5.43,5.43,0,0,1-2.31.41,2.81,2.81,0,0,1-1.94-.69,3.59,3.59,0,0,1-1.06-1.86h-.23a6.27,6.27,0,0,1-2.5,2,8.46,8.46,0,0,1-3.48.71A7.76,7.76,0,0,1,625.54,107Zm7.41-1.94a4.75,4.75,0,0,0,1.94-1.61,4.41,4.41,0,0,0,.75-2.6V99.58a23,23,0,0,0-6.58.7,2.66,2.66,0,0,0-2.19,2.63,2.37,2.37,0,0,0,.9,2.09,4.66,4.66,0,0,0,2.67.63A5.85,5.85,0,0,0,633,105.08ZM644.81,107a4.22,4.22,0,0,1-.85-2.69v-12h-2.18V89.83H644l.65-5H647v5h3v2.48h-3V104c0,1.07.5,1.6,1.49,1.6H650v2a5.33,5.33,0,0,1-1.15.34,7.19,7.19,0,0,1-1.33.13A3.19,3.19,0,0,1,644.81,107Zm8.79-1.18q-2.07-2.28-2.07-7t2.07-7.05c1.38-1.53,3.45-2.29,6.19-2.29s4.8.76,6.18,2.29,2.08,3.88,2.08,7.05-.7,5.53-2.08,7-3.44,2.3-6.18,2.3S655,107.34,653.6,105.81Zm10.13-1.76c.82-1.06,1.22-2.77,1.22-5.15v-.27c0-2.38-.4-4.1-1.22-5.15a5.7,5.7,0,0,0-7.88,0q-1.23,1.58-1.23,5.15v.27c0,2.38.41,4.09,1.23,5.15a5.7,5.7,0,0,0,7.88,0Zm-2.24-20.92h3.26l0,.1-3.67,4.39h-2.55Zm9.94,6.7h2.27l.34,2.68h.21a5.5,5.5,0,0,1,1.53-2.21,3.94,3.94,0,0,1,2.68-.88,4.32,4.32,0,0,1,1.6.27v2.89H678.8a4.55,4.55,0,0,0-3.14,1.1,4.39,4.39,0,0,0-1.24,3.45V107.7h-3Zm11.28-6.7h2.95v3.23h-2.95Zm0,6.7h3V107.7h-3Zm8.47,16q-2.07-2.28-2.07-7t2.07-7.05q2.09-2.29,6.19-2.29t6.18,2.29c1.38,1.53,2.08,3.88,2.08,7.05s-.7,5.53-2.08,7-3.44,2.3-6.18,2.3S692.57,107.34,691.18,105.81Zm10.13-1.76c.82-1.06,1.22-2.77,1.22-5.15v-.27c0-2.38-.4-4.1-1.22-5.15a5.7,5.7,0,0,0-7.88,0q-1.23,1.58-1.23,5.15v.27c0,2.38.41,4.09,1.23,5.15a5.7,5.7,0,0,0,7.88,0Zm19.34,1.78c-1.23-1.52-1.84-3.87-1.84-7.07s.61-5.46,1.82-7a6,6,0,0,1,5-2.33,8,8,0,0,1,3.23.58,5,5,0,0,1,2.2,1.86h.21V83.13h3V107.7H732l-.38-2.41h-.2a5.77,5.77,0,0,1-2.33,2.11,7.2,7.2,0,0,1-3.21.71A6.31,6.31,0,0,1,720.65,105.83Zm9.49-1.9a9.26,9.26,0,0,0,1.11-5v-.14a9.53,9.53,0,0,0-1.12-5.13,3.89,3.89,0,0,0-3.5-1.73,5,5,0,0,0-2.74.66,3.81,3.81,0,0,0-1.51,2.16,13.66,13.66,0,0,0-.48,4v.14a13.22,13.22,0,0,0,.48,4,3.79,3.79,0,0,0,1.49,2.1,5.12,5.12,0,0,0,2.76.65A3.87,3.87,0,0,0,730.14,103.93Zm9.67,1.9c-1.41-1.52-2.11-3.87-2.11-7.07s.7-5.55,2.11-7.07,3.54-2.27,6.42-2.27c2.58,0,4.52.68,5.8,2S754,95.05,754,98.08v1.5H740.79a7.46,7.46,0,0,0,1.48,4.57,5,5,0,0,0,4,1.48,5.67,5.67,0,0,0,3.47-1,3.51,3.51,0,0,0,1.32-3H754a5.75,5.75,0,0,1-2.16,4.81,8.79,8.79,0,0,1-5.56,1.68Q741.91,108.11,739.81,105.83Zm11-8.73q0-5.2-4.59-5.2a5.34,5.34,0,0,0-3.82,1.22,6.21,6.21,0,0,0-1.55,4ZM769.2,84.39h3.23V107.7H769.2Zm8.21,5.44h2.28l.34,2.41h.24a6.82,6.82,0,0,1,6-2.82,5.59,5.59,0,0,1,4.13,1.44c1,1,1.44,2.51,1.44,4.64v12.2h-3v-12a3.81,3.81,0,0,0-1-3,4.07,4.07,0,0,0-2.75-.83,4.66,4.66,0,0,0-2.38.63,4.47,4.47,0,0,0-1.73,1.82,5.74,5.74,0,0,0-.65,2.78V107.7h-3Zm20.75,17.55a5.52,5.52,0,0,1-2.43-1.92,4.65,4.65,0,0,1-.78-2.58c0-.28,0-.46,0-.57s0-.16,0-.18h3v.34a2.64,2.64,0,0,0,1.26,2.39,5.94,5.94,0,0,0,3.26.8,5.33,5.33,0,0,0,2.87-.7,2.16,2.16,0,0,0,1.14-1.95,2.14,2.14,0,0,0-.64-1.61,4.61,4.61,0,0,0-1.6-1,24.16,24.16,0,0,0-2.58-.76,24.72,24.72,0,0,1-3.21-1,5.61,5.61,0,0,1-2.11-1.51,3.84,3.84,0,0,1-.87-2.6,4.36,4.36,0,0,1,1.92-3.73,10.21,10.21,0,0,1,8.72-.71,5.19,5.19,0,0,1,2.26,1.77,4.21,4.21,0,0,1,.76,2.46l0,.65h-2.92v-.31a2.45,2.45,0,0,0-.94-2,4.65,4.65,0,0,0-3-.78,4.3,4.3,0,0,0-2.86.73,2.22,2.22,0,0,0-.81,1.68,1.66,1.66,0,0,0,.57,1.29,4.51,4.51,0,0,0,1.43.82c.57.2,1.36.43,2.38.68a29.32,29.32,0,0,1,3.43,1.07,5.74,5.74,0,0,1,2.26,1.6,4.17,4.17,0,0,1,.94,2.83,4.7,4.7,0,0,1-2,4.13,9.13,9.13,0,0,1-5.29,1.38A10.35,10.35,0,0,1,798.16,107.38Zm16.35-.39a4.22,4.22,0,0,1-.85-2.69v-12h-2.18V89.83h2.21l.65-5h2.31v5h3v2.48h-3V104c0,1.07.5,1.6,1.49,1.6h1.53v2a5.33,5.33,0,0,1-1.15.34,7.19,7.19,0,0,1-1.33.13A3.19,3.19,0,0,1,814.51,107Zm7.92-17.16h2.27l.34,2.68h.21a5.5,5.5,0,0,1,1.53-2.21,3.94,3.94,0,0,1,2.68-.88,4.32,4.32,0,0,1,1.6.27v2.89H829.8a4.57,4.57,0,0,0-3.14,1.1,4.39,4.39,0,0,0-1.24,3.45V107.7h-3Zm12.68,16.83q-1.46-1.44-1.45-4.63V89.83h3v12a3.85,3.85,0,0,0,1,3,4.12,4.12,0,0,0,2.76.83,4.68,4.68,0,0,0,2.38-.63,4.6,4.6,0,0,0,1.73-1.82,5.75,5.75,0,0,0,.64-2.79V89.83h3V107.7h-2.27l-.34-2.41h-.24a6.83,6.83,0,0,1-6,2.82A5.56,5.56,0,0,1,835.11,106.66Zm17.25-16.83h2.28l.34,2.41h.23a6,6,0,0,1,5.37-2.82q3.46,0,4.62,2.82h.21a6.11,6.11,0,0,1,2.39-2.09,7,7,0,0,1,3.15-.73q5.26,0,5.27,5.4V107.7h-3V95.36a3.51,3.51,0,0,0-.85-2.7A3.35,3.35,0,0,0,870,91.9a3.79,3.79,0,0,0-3,1.43,5.62,5.62,0,0,0-1.23,3.8V107.7h-3V95.36a3.63,3.63,0,0,0-.81-2.7,3.27,3.27,0,0,0-2.31-.76,3.94,3.94,0,0,0-2.15.63,4.5,4.5,0,0,0-1.58,1.82,6.22,6.22,0,0,0-.59,2.78V107.7h-3Zm29.32,16c-1.4-1.52-2.1-3.87-2.1-7.07s.7-5.55,2.1-7.07,3.55-2.27,6.43-2.27q3.87,0,5.79,2t1.92,6.61v1.5H882.67a7.34,7.34,0,0,0,1.48,4.57,5,5,0,0,0,4,1.48,5.63,5.63,0,0,0,3.46-1,3.49,3.49,0,0,0,1.33-3h2.92a5.75,5.75,0,0,1-2.16,4.81,8.78,8.78,0,0,1-5.55,1.68Q883.79,108.11,881.68,105.83Zm11-8.73q0-5.2-4.58-5.2a5.37,5.37,0,0,0-3.83,1.22,6.21,6.21,0,0,0-1.54,4Zm6.67-7.27h2.27l.34,2.41h.24a6.85,6.85,0,0,1,6-2.82,5.61,5.61,0,0,1,4.13,1.44c1,1,1.44,2.51,1.44,4.64v12.2h-3v-12a3.84,3.84,0,0,0-.95-3,4.09,4.09,0,0,0-2.75-.83,4.63,4.63,0,0,0-2.38.63A4.5,4.5,0,0,0,903,94.35a5.74,5.74,0,0,0-.64,2.78V107.7h-3Zm20,17.16a4.28,4.28,0,0,1-.85-2.69v-12h-2.17V89.83h2.21l.64-5h2.31v5h3v2.48h-3V104c0,1.07.5,1.6,1.5,1.6h1.53v2a5.43,5.43,0,0,1-1.16.34,7.09,7.09,0,0,1-1.32.13A3.21,3.21,0,0,1,919.33,107Zm9.12,0c-1.2-.72-1.8-2-1.8-3.94a4.68,4.68,0,0,1,3.06-4.71,23.88,23.88,0,0,1,8.83-1.27v-2a3.15,3.15,0,0,0-.88-2.4,6.46,6.46,0,0,0-6.3,0,2.57,2.57,0,0,0-.94,2v.41h-2.89a6.22,6.22,0,0,1,0-.75,4.12,4.12,0,0,1,2-3.67,9.49,9.49,0,0,1,5.27-1.29,7.92,7.92,0,0,1,5.06,1.39,4.75,4.75,0,0,1,1.73,3.94v9.69a1.13,1.13,0,0,0,.34.9,1.29,1.29,0,0,0,.85.29h1.36v1.93a5.43,5.43,0,0,1-2.31.41,2.83,2.83,0,0,1-1.94-.69,3.51,3.51,0,0,1-1.05-1.86h-.24a6.14,6.14,0,0,1-2.5,2,8.42,8.42,0,0,1-3.48.71A7.75,7.75,0,0,1,928.45,107Zm7.41-1.94a4.65,4.65,0,0,0,1.93-1.61,4.41,4.41,0,0,0,.75-2.6V99.58a22.92,22.92,0,0,0-6.57.7,2.67,2.67,0,0,0-2.2,2.63,2.38,2.38,0,0,0,.91,2.09,4.62,4.62,0,0,0,2.66.63A5.9,5.9,0,0,0,935.86,105.08Zm20.69-.59a5.15,5.15,0,0,0,1-3.42h2.89a7.4,7.4,0,0,1-1.65,5,6.65,6.65,0,0,1-5.08,2.09l-.14.85c2.09.13,3.13.87,3.13,2.21a2.2,2.2,0,0,1-1.22,2.14,6.15,6.15,0,0,1-2.79.61,17.79,17.79,0,0,1-3.23-.27V112h3.4a2.4,2.4,0,0,0,1-.18.76.76,0,0,0,.06-1.24,1.84,1.84,0,0,0-1-.21h-1.74l.45-2.34A6.33,6.33,0,0,1,947,105.3a11.8,11.8,0,0,1-1.5-6.54q0-4.79,1.92-7.07t6-2.27c2.45,0,4.23.59,5.37,1.77a7.31,7.31,0,0,1,1.7,5.26h-3.06a5.52,5.52,0,0,0-.87-3.48,3.87,3.87,0,0,0-3.14-1.07,4.18,4.18,0,0,0-3.64,1.61q-1.16,1.62-1.15,5.25v.14q0,3.6,1.12,5.16a4.19,4.19,0,0,0,3.67,1.57A4,4,0,0,0,956.55,104.49Zm8,2.53c-1.2-.72-1.8-2-1.8-3.94a4.68,4.68,0,0,1,3.06-4.71,23.88,23.88,0,0,1,8.83-1.27v-2a3.15,3.15,0,0,0-.88-2.4,6.48,6.48,0,0,0-6.31,0,2.59,2.59,0,0,0-.93,2v.41h-2.89a6.22,6.22,0,0,1,0-.75,4.12,4.12,0,0,1,2-3.67,9.49,9.49,0,0,1,5.27-1.29,7.92,7.92,0,0,1,5.06,1.39,4.78,4.78,0,0,1,1.73,3.94v9.69a1.13,1.13,0,0,0,.34.9,1.29,1.29,0,0,0,.85.29h1.36v1.93a5.43,5.43,0,0,1-2.31.41,2.83,2.83,0,0,1-1.94-.69,3.51,3.51,0,0,1-1.05-1.86h-.24a6.14,6.14,0,0,1-2.5,2,8.42,8.42,0,0,1-3.48.71A7.75,7.75,0,0,1,964.56,107Zm1.19-22.89a2.5,2.5,0,0,1,2.17-1,5.54,5.54,0,0,1,1.24.14c.4.09.88.22,1.45.4a7.55,7.55,0,0,0,2.38.51c.56,0,.88-.35,1-1.05h2.21a4.23,4.23,0,0,1-.72,2.53,2.48,2.48,0,0,1-2.17,1,5.54,5.54,0,0,1-1.24-.14c-.4-.09-.88-.23-1.45-.41a7.55,7.55,0,0,0-2.37-.51c-.57,0-.89.35-1,1.06H965A4.26,4.26,0,0,1,965.75,84.13Zm6.22,21a4.65,4.65,0,0,0,1.93-1.61,4.41,4.41,0,0,0,.75-2.6V99.58a22.92,22.92,0,0,0-6.57.7,2.67,2.67,0,0,0-2.2,2.63,2.36,2.36,0,0,0,.91,2.09,4.6,4.6,0,0,0,2.66.63A5.9,5.9,0,0,0,972,105.08Zm11.59.73q-2.07-2.28-2.07-7t2.07-7.05c1.38-1.53,3.45-2.29,6.19-2.29s4.8.76,6.18,2.29S998,95.59,998,98.76s-.7,5.53-2.08,7-3.44,2.3-6.18,2.3S984.94,107.34,983.56,105.81Zm10.13-1.76c.81-1.06,1.22-2.77,1.22-5.15v-.27q0-3.57-1.22-5.15a5.7,5.7,0,0,0-7.88,0q-1.23,1.58-1.23,5.15v.27c0,2.38.41,4.09,1.23,5.15a5.7,5.7,0,0,0,7.88,0Zm-453.93,41.8q-3-3-3-9t3-9q3-3,8.58-3c3.71,0,6.59,1,8.61,3s3,5,3,9-1,7-3,9-4.9,3.06-8.61,3.06S541.79,147.87,539.76,145.85Zm14.76-1.91q2.15-2.19,2.14-7v-.14q0-4.86-2.17-7.08a9.55,9.55,0,0,0-12.27,0q-2.15,2.22-2.17,7.08V137q0,4.78,2.14,7a9.77,9.77,0,0,0,12.33,0Zm10.38,2.69q-1.9-2.26-1.91-7.09t1.92-7.07q1.92-2.26,6-2.27,3.66,0,5.37,1.76a7.35,7.35,0,0,1,1.69,5.27h-3.05a5.52,5.52,0,0,0-.87-3.48,3.85,3.85,0,0,0-3.14-1.07,4.18,4.18,0,0,0-3.64,1.61q-1.15,1.62-1.16,5.25v.14q0,3.6,1.13,5.16a4.18,4.18,0,0,0,3.67,1.57,4,4,0,0,0,3.21-1.14,5.21,5.21,0,0,0,1-3.42h2.88a7.39,7.39,0,0,1-1.73,5.05c-1.15,1.32-2.93,2-5.33,2C568.16,148.89,566.16,148.13,564.9,146.63Zm17.55,0c-1.41-1.52-2.11-3.87-2.11-7.07s.7-5.55,2.11-7.07,3.54-2.27,6.42-2.27q3.87,0,5.79,2.05c1.28,1.37,1.92,3.58,1.92,6.61v1.5H583.43a7.46,7.46,0,0,0,1.48,4.57,5,5,0,0,0,4,1.48,5.67,5.67,0,0,0,3.47-1,3.52,3.52,0,0,0,1.32-3h2.92a5.77,5.77,0,0,1-2.15,4.81,8.79,8.79,0,0,1-5.56,1.68Q584.55,148.89,582.45,146.61Zm11-8.73q0-5.2-4.59-5.2a5.34,5.34,0,0,0-3.82,1.22,6.21,6.21,0,0,0-1.55,4ZM601,147.8c-1.2-.72-1.8-2-1.8-3.94a4.68,4.68,0,0,1,3.06-4.71,23.88,23.88,0,0,1,8.83-1.27v-2a3.13,3.13,0,0,0-.88-2.4,6.46,6.46,0,0,0-6.3,0,2.57,2.57,0,0,0-.94,2v.41h-2.89a6.22,6.22,0,0,1,0-.75,4.14,4.14,0,0,1,2-3.67,9.49,9.49,0,0,1,5.27-1.29,7.91,7.91,0,0,1,5.06,1.39,4.75,4.75,0,0,1,1.73,3.94v9.69a1.13,1.13,0,0,0,.34.9,1.29,1.29,0,0,0,.85.29h1.36v1.93a5.43,5.43,0,0,1-2.31.41,2.76,2.76,0,0,1-1.93-.7,3.39,3.39,0,0,1-1.06-1.85h-.24a6.07,6.07,0,0,1-2.49,2,8.35,8.35,0,0,1-3.49.72A7.84,7.84,0,0,1,601,147.8Zm7.41-1.94a4.75,4.75,0,0,0,1.94-1.61,4.48,4.48,0,0,0,.74-2.6v-1.29a23.36,23.36,0,0,0-6.57.69,2.68,2.68,0,0,0-2.19,2.64,2.37,2.37,0,0,0,.9,2.09,4.64,4.64,0,0,0,2.66.63A5.86,5.86,0,0,0,608.38,145.86Zm10.8-15.26h2.27l.34,2.42H622a6.84,6.84,0,0,1,6-2.82,5.59,5.59,0,0,1,4.12,1.44q1.46,1.44,1.45,4.64v12.2h-3v-12a3.84,3.84,0,0,0-1-3,4.12,4.12,0,0,0-2.76-.83,4.62,4.62,0,0,0-2.37.63,4.53,4.53,0,0,0-1.74,1.81,5.8,5.8,0,0,0-.64,2.79v10.57h-3Zm19.79,16q-2.07-2.29-2.07-7.05t2.07-7q2.09-2.3,6.19-2.29t6.18,2.29q2.08,2.3,2.08,7t-2.08,7.05q-2.07,2.29-6.18,2.3T639,146.59Zm10.13-1.76c.82-1.06,1.22-2.77,1.22-5.15v-.27c0-2.38-.4-4.1-1.22-5.15a5.7,5.7,0,0,0-7.88,0q-1.23,1.58-1.23,5.15v.27c0,2.38.41,4.09,1.23,5.15a5.7,5.7,0,0,0,7.88,0Zm7.3,8.83a3.75,3.75,0,0,1-1.44-3.31,3.81,3.81,0,0,1,2.89-3.81,3.92,3.92,0,0,1-1.34-1.14,2.54,2.54,0,0,1-.53-1.61,2.32,2.32,0,0,1,.93-2,5.88,5.88,0,0,1,2.06-1,5.94,5.94,0,0,1-1.77-2,5.92,5.92,0,0,1,1.29-7.05,8.11,8.11,0,0,1,5.3-1.58,9,9,0,0,1,3.4.61,4.21,4.21,0,0,0,2.59-3.09h2.85a4.26,4.26,0,0,1-.93,2.75,4.48,4.48,0,0,1-2.54,1.53,5.8,5.8,0,0,1,0,8.65,8.23,8.23,0,0,1-5.32,1.58h-2.85a2.17,2.17,0,0,0-1.41.4,1.32,1.32,0,0,0-.49,1.06,1.29,1.29,0,0,0,.49,1.05,2.17,2.17,0,0,0,1.41.41h7.17a4.41,4.41,0,0,1,3.33,1.27,4.27,4.27,0,0,1,1.22,3.08,5.66,5.66,0,0,1-.57,2.48,4.62,4.62,0,0,1-1.86,1.94,6.35,6.35,0,0,1-3.21.74h-7.2A5.84,5.84,0,0,1,656.4,153.66Zm10.69-1.41a2.84,2.84,0,0,0,1.87-.61,2,2,0,0,0,.75-1.63,2.19,2.19,0,0,0-.6-1.62,2.14,2.14,0,0,0-1.58-.59h-7.44a2.08,2.08,0,0,0-1.56.59A2.22,2.22,0,0,0,658,150a2.26,2.26,0,0,0,.58,1.63,2,2,0,0,0,1.56.61ZM667,139a3.47,3.47,0,0,0,1.09-2.74,3.43,3.43,0,0,0-1.09-2.73,5.75,5.75,0,0,0-6.39,0,3.46,3.46,0,0,0-1.08,2.73,3.5,3.5,0,0,0,1.08,2.74,5.75,5.75,0,0,0,6.39,0Zm8.37-8.35h2.28l.34,2.69h.2a5.5,5.5,0,0,1,1.53-2.21,3.94,3.94,0,0,1,2.68-.88,4.29,4.29,0,0,1,1.6.27v2.89h-1.26a4.57,4.57,0,0,0-3.14,1.1,4.39,4.39,0,0,0-1.24,3.45v10.57h-3Zm12.06,17.2c-1.2-.72-1.8-2-1.8-3.94a4.68,4.68,0,0,1,3.06-4.71,23.9,23.9,0,0,1,8.84-1.27v-2a3.14,3.14,0,0,0-.89-2.4,6.46,6.46,0,0,0-6.3,0,2.6,2.6,0,0,0-.94,2v.41h-2.88a4.31,4.31,0,0,1,0-.75,4.14,4.14,0,0,1,2-3.67,9.52,9.52,0,0,1,5.27-1.29,7.91,7.91,0,0,1,5.06,1.39,4.76,4.76,0,0,1,1.74,3.94v9.69a1.1,1.1,0,0,0,.34.9,1.27,1.27,0,0,0,.85.29h1.35v1.93a5.37,5.37,0,0,1-2.31.41,2.76,2.76,0,0,1-1.93-.7,3.45,3.45,0,0,1-1.06-1.85h-.23a6.17,6.17,0,0,1-2.5,2,8.34,8.34,0,0,1-3.48.72A7.85,7.85,0,0,1,687.45,147.8Zm7.41-1.94a4.75,4.75,0,0,0,1.94-1.61,4.41,4.41,0,0,0,.75-2.6v-1.29a23.39,23.39,0,0,0-6.58.69,2.68,2.68,0,0,0-2.19,2.64,2.37,2.37,0,0,0,.9,2.09,4.66,4.66,0,0,0,2.67.63A5.85,5.85,0,0,0,694.86,145.86Zm.31-22h3.26l0,.1-3.67,4.39h-2.55Zm10.94,9.18H703.5V130.6h2.61v-2.85a4.74,4.74,0,0,1,.89-2.94,3.51,3.51,0,0,1,3-1.17,8,8,0,0,1,1.37.12,6.56,6.56,0,0,1,1.18.29v2.07h-1.77a1.46,1.46,0,0,0-1.67,1.63v2.85h3.44v2.49H709.1v15.39h-3Zm8.8-9.18h3v3.33h-3Zm0,6.69h3v17.88h-3Zm8.51,16q-1.9-2.26-1.9-7.09t1.92-7.07q1.92-2.26,6-2.27,3.68,0,5.37,1.76a7.31,7.31,0,0,1,1.7,5.27h-3.06a5.52,5.52,0,0,0-.86-3.48,3.86,3.86,0,0,0-3.15-1.07,4.17,4.17,0,0,0-3.63,1.61q-1.15,1.62-1.16,5.25v.14c0,2.4.38,4.12,1.12,5.16a4.2,4.2,0,0,0,3.67,1.57,4,4,0,0,0,3.22-1.14,5.21,5.21,0,0,0,1-3.42h2.89a7.39,7.39,0,0,1-1.73,5.05c-1.16,1.32-2.93,2-5.34,2C726.69,148.89,724.69,148.13,723.42,146.63Zm17.21,1.17c-1.21-.72-1.81-2-1.81-3.94a4.68,4.68,0,0,1,3.06-4.71,23.93,23.93,0,0,1,8.84-1.27v-2a3.14,3.14,0,0,0-.89-2.4,4.68,4.68,0,0,0-3.19-.83,4.73,4.73,0,0,0-3.11.81,2.59,2.59,0,0,0-.93,2v.41h-2.89a4.31,4.31,0,0,1,0-.75,4.14,4.14,0,0,1,2-3.67,9.52,9.52,0,0,1,5.27-1.29,8,8,0,0,1,5.07,1.39,4.78,4.78,0,0,1,1.73,3.94v9.69a1.1,1.1,0,0,0,.34.9,1.27,1.27,0,0,0,.85.29h1.36v1.93a5.43,5.43,0,0,1-2.31.41,2.79,2.79,0,0,1-1.94-.7,3.44,3.44,0,0,1-1-1.85h-.24a6.1,6.1,0,0,1-2.5,2,8.27,8.27,0,0,1-3.48.72A7.84,7.84,0,0,1,740.63,147.8Zm7.4-1.94a4.68,4.68,0,0,0,1.94-1.61,4.41,4.41,0,0,0,.75-2.6v-1.29a23.44,23.44,0,0,0-6.58.69,2.68,2.68,0,0,0-2.19,2.64,2.37,2.37,0,0,0,.9,2.09,4.66,4.66,0,0,0,2.67.63A5.85,5.85,0,0,0,748,145.86Zm22.36-23.15H773v30.45h-2.65Zm21,23.17c-1.91-2-2.86-5-2.86-9.06s1-7,2.86-9,4.73-3,8.49-3a11.05,11.05,0,0,1,7.29,2.26,8.06,8.06,0,0,1,2.74,6.58h-3.3a5.7,5.7,0,0,0-1.78-4.54,7.32,7.32,0,0,0-5-1.55q-4.11,0-6,2.18c-1.29,1.45-2,3.8-2,7.07v.06q0,4.94,1.94,7.12t6.08,2.19a7.61,7.61,0,0,0,5.05-1.52,5.55,5.55,0,0,0,1.82-4.49h3.16q0,4.35-2.72,6.56a11.28,11.28,0,0,1-7.31,2.21C796.13,148.89,793.3,147.88,791.4,145.88Zm24.7,0q-3-3-3-9t3-9q3-3,8.58-3t8.61,3q3,3,3,9t-3,9q-3,3.06-8.61,3.06C821,148.89,818.12,147.87,816.1,145.85Zm14.76-1.91q2.14-2.19,2.14-7v-.14q0-4.86-2.17-7.08a9.55,9.55,0,0,0-12.27,0q-2.14,2.22-2.17,7.08V137q0,4.78,2.14,7a9.77,9.77,0,0,0,12.33,0Zm9.74-18.77H852a7.19,7.19,0,1,1,0,14.37h-8.12v8.94H840.6Zm11.18,11.55a4,4,0,0,0,3-1.19,4.55,4.55,0,0,0,1.12-3.23,4.45,4.45,0,0,0-1.06-3.19,4,4,0,0,0-3.09-1.12h-7.95v8.73Zm11-11.55h11.35a7.37,7.37,0,0,1,5.28,12.38,7,7,0,0,1-5.28,2h-8.12v8.94h-3.23ZM874,136.72a3.91,3.91,0,0,0,3-1.19,5.25,5.25,0,0,0,.07-6.42A4,4,0,0,0,874,128h-8v8.73Zm11-11.55H903V128H888.26v7.17h13.22V138H888.26v7.68h14.92v2.82H885Zm33.88-2.46h2.65v30.45h-2.65Zm21.71,24q-2.48-2.2-2.48-6.8V125.17h3.23v14.88a5.92,5.92,0,0,0,1.65,4.54,6.56,6.56,0,0,0,4.67,1.54,6.64,6.64,0,0,0,4.72-1.56,5.9,5.9,0,0,0,1.67-4.52V125.17h3.23v14.71q0,4.59-2.48,6.8t-7.14,2.21C944.64,148.89,942.29,148.15,940.63,146.68Zm22-21.51h16.51V128H965.86v7.41h12.06v2.82H965.86v10.26h-3.23Zm20.2,0H995a7.42,7.42,0,0,1,5.37,1.8,6.37,6.37,0,0,1,1.87,4.82,7.34,7.34,0,0,1-1.14,4.12,6.3,6.3,0,0,1-3.14,2.48l5.37,10.09h-3.6l-5.07-9.62h-8.56v9.62h-3.23Zm12,10.87a4.09,4.09,0,0,0,3-1.12,4.21,4.21,0,0,0,1.12-3.09,3.7,3.7,0,0,0-1.06-2.84,4.3,4.3,0,0,0-3.09-1h-8.73v8Zm12.12,11.15a6.62,6.62,0,0,1-1.73-4.93v-.85h3.23v1a3.89,3.89,0,0,0,.88,2.77,3.35,3.35,0,0,0,2.55.93,3.14,3.14,0,0,0,2.58-1.07,4.87,4.87,0,0,0,.89-3.17V125.17h3.23v16.55a7.44,7.44,0,0,1-1.74,5.37,6.56,6.56,0,0,1-5,1.8A6.77,6.77,0,0,1,1006.91,147.19ZM154,162.4a199.14,199.14,0,0,0,22-1.27,53,53,0,0,1-8.74,11.37l-.11.11Q149,190.45,115.82,190.43T64.45,172.5a51.3,51.3,0,0,1-5.73-6.73,56.51,56.51,0,0,1-5.68-10c28.77-3.63,44.93-.69,62,2.41C126.51,160.27,138.27,162.4,154,162.4Zm-38.8-25.29c-18.18-3.32-35.37-6.45-67.81-1.67a87.21,87.21,0,0,0,2.09,10.3c31.82-4.28,49.87-1,67.35,2.2s34,6.19,64.16,2.12a76.21,76.21,0,0,0,2.82-11A214.55,214.55,0,0,1,154,141.31C138.37,141.31,126.68,139.19,115.23,137.11Zm.24-18.47c-18.46-3.36-35.93-6.54-69.14-1.55,0,.6,0,1.2,0,1.81q0,4.53.3,8.76c33.53-4.89,52.08-1.5,70,1.76,18.27,3.33,35.57,6.49,68.35,1.59.33-3.41.52-7,.55-10.69a216.09,216.09,0,0,1-31.5,2.51C138.48,122.83,126.85,120.71,115.47,118.64Zm.7-18.42c17.51,3.19,35.57,6.48,68.2,1.74Q181,78.7,167.32,65.3q-18.25-18-51.5-17.94T64.45,65.3Q52,77.63,48.08,98.32C80.51,93.73,98.62,97,116.17,100.22Zm.23,13.29c18.45,3.36,35.9,6.55,69.11,1.55-.11-3.65-.37-7.17-.77-10.52A212.82,212.82,0,0,1,154.06,107c-15.49,0-27-2.11-38.36-4.17C98.21,99.6,80.17,96.31,47.63,101a100.25,100.25,0,0,0-1.12,10.8C80,106.91,98.51,110.26,116.4,113.51Zm130-29.17h-12.9v69.12h49.57V142.27H246.45ZM295,153.46h12.79V84.34H295ZM382.71,92.1q9.1,9,9.12,26.8t-9.12,26.8q-9.12,9-25.75,9t-25.69-9q-9.07-9-9.07-26.8t9.07-26.8q9.08-9,25.69-9T382.71,92.1Zm-4.09,25.79q0-11.79-5.54-17.83T357,94q-10.47,0-16,6t-5.54,17.83V120q0,11.79,5.49,17.78t16.07,6q10.68,0,16.17-6T378.62,120ZM421.27,100q5-6,15.42-5.95,7.76,0,12.45,4.13t4.68,11.69H467q0-8.76-4-14.76a24.34,24.34,0,0,0-10.83-9,39.21,39.21,0,0,0-15.72-3q-16.12,0-24.79,8.92T403,118.9q0,18.24,8.56,27t24.89,8.76q13.69,0,22.12-6.75T467,128.17h-12.7q0,7.46-4.73,11.54t-12.9,4.07q-10.47,0-15.47-5.89t-5-18v-2Q416.24,105.91,421.27,100ZM501.6,75.74v86.32h2.65V75.74Z"/></g></svg>