<svg width="36" height="37" viewBox="0 0 36 37" fill="none" xmlns="http://www.w3.org/2000/svg">
<path fill-rule="evenodd" clip-rule="evenodd" d="M16.9629 1.05C26.4566 0.324929 34.7983 7.57245 35.5324 17.1836C36.2663 26.7948 29.1219 35.225 19.6282 35.95C10.1345 36.675 1.79284 29.4276 1.05887 19.8164C0.324814 10.2053 7.46924 1.77498 16.9629 1.05Z" fill="#4D4D4D" stroke="#A4C4C5" stroke-width="0.0761942" stroke-miterlimit="22.9256"/>
<path fill-rule="evenodd" clip-rule="evenodd" d="M35.449 16.938C35.4648 17.0917 35.4791 17.2462 35.4909 17.4013C35.5045 17.5786 35.5144 17.7553 35.5224 17.9318C35.2676 17.9552 35.0137 17.9769 34.7604 17.9964C28.8968 18.447 23.4483 17.861 18.0215 17.4229C17.9734 17.4191 17.9253 17.4151 17.8772 17.4113C17.6787 17.3953 17.4806 17.3797 17.2821 17.3642C17.1755 17.356 17.0688 17.3478 16.9621 17.3397C16.87 17.3327 16.7778 17.3258 16.6857 17.3189C16.4303 17.2998 16.1748 17.2811 15.9193 17.2633C15.8886 17.2612 15.8579 17.2588 15.8273 17.2567C15.6764 17.2462 15.5253 17.236 15.3744 17.2261C15.344 17.2241 15.3139 17.2222 15.2835 17.2202C14.8032 17.1888 14.3223 17.16 13.8408 17.1348C13.8349 17.1346 13.829 17.1341 13.8231 17.1339C10.4933 16.9607 7.13365 16.957 3.65392 17.3943C3.64834 17.395 3.64284 17.3956 3.63734 17.3964C3.12998 17.4603 2.61992 17.5338 2.10724 17.6174C2.09327 17.6197 2.07948 17.6217 2.06569 17.6239C2.0656 17.624 2.0656 17.6241 2.06551 17.6242C1.71835 17.681 1.37004 17.7427 1.02016 17.8091C1.03981 17.4322 1.07263 17.0585 1.11654 16.6876C1.68701 16.5872 2.2594 16.4985 2.83423 16.4203C9.49016 15.5144 16.4111 16.0412 22.9327 16.5142C23.0632 16.5236 23.1928 16.5329 23.323 16.5424C23.8109 16.5777 24.2965 16.6126 24.7795 16.6463C24.8204 16.6491 24.8611 16.6518 24.902 16.6547C25.1738 16.6736 25.4449 16.6921 25.715 16.7101C25.7712 16.7138 25.827 16.7176 25.8829 16.7211C26.6645 16.773 27.4384 16.8202 28.2036 16.8608C28.2109 16.8612 28.2182 16.8616 28.2255 16.862C28.54 16.8786 28.8529 16.8941 29.1644 16.9081C29.1652 16.9081 29.1659 16.9082 29.1667 16.9082C29.6238 16.9289 30.0776 16.9464 30.5277 16.9607C30.5674 16.9619 30.6068 16.9631 30.6464 16.9643C30.9036 16.9721 31.1594 16.9786 31.414 16.984C31.4547 16.9849 31.4954 16.9857 31.536 16.9865C31.9659 16.9947 32.3924 16.9992 32.8149 16.9994C32.8669 16.9994 32.9187 16.9993 32.9703 16.9993C33.1943 16.9989 33.4173 16.9971 33.639 16.9941C33.7026 16.9933 33.766 16.9925 33.8294 16.9915C33.9572 16.9893 34.0847 16.987 34.2117 16.9839C34.3319 16.9811 34.4515 16.9776 34.5709 16.9738C34.866 16.9646 35.1585 16.9526 35.4491 16.9381L35.449 16.938ZM35.4987 19.918C35.469 20.3464 35.4234 20.7711 35.3623 21.1912C35.2532 21.2006 35.1444 21.2094 35.0355 21.2179C29.1721 21.6693 23.7045 20.8342 18.2615 20.1841C18.2133 20.1784 18.1651 20.1725 18.1168 20.1667C17.9178 20.1432 17.719 20.1199 17.52 20.0969C17.4131 20.0844 17.3061 20.0722 17.199 20.0602C17.1068 20.0497 17.0142 20.0393 16.9219 20.0288C16.6657 20.0002 16.4095 19.9721 16.1533 19.9449C16.1225 19.9417 16.0917 19.9382 16.061 19.935C15.9096 19.9192 15.7583 19.9035 15.6069 19.8883C15.5764 19.885 15.5461 19.8822 15.5157 19.8791C15.0341 19.8308 14.552 19.7857 14.0694 19.7451C14.0634 19.7447 14.0576 19.7442 14.0516 19.7437C10.7137 19.4641 7.34909 19.3958 3.87268 19.8757C3.8671 19.8766 3.8616 19.8772 3.8561 19.878C3.34918 19.9482 2.83982 20.0303 2.32792 20.125C2.31395 20.1275 2.30034 20.1298 2.28646 20.1323C2.28637 20.1324 2.28637 20.1325 2.28628 20.1326C1.88508 20.2072 1.4823 20.2896 1.07778 20.3804C1.06652 20.2645 1.05561 20.1485 1.0467 20.0318C1.0206 19.6899 1.00585 19.3496 1 19.011C1.67426 18.8685 2.35201 18.747 3.03317 18.6441C9.68151 17.6394 16.6225 18.4285 23.1626 19.1428C23.2935 19.1571 23.4236 19.1712 23.5541 19.1854C24.0434 19.2387 24.5304 19.2914 25.0146 19.3428C25.0555 19.3471 25.0965 19.3513 25.1373 19.3557C25.41 19.3844 25.6819 19.4126 25.9527 19.4403C26.009 19.446 26.0649 19.4518 26.121 19.4575C26.9046 19.5368 27.6806 19.6105 28.4477 19.6758C28.4549 19.6763 28.4623 19.677 28.4696 19.6777C28.7848 19.7045 29.0987 19.7297 29.4107 19.7531C29.4115 19.7531 29.4123 19.7533 29.4131 19.7533C29.8713 19.7878 30.326 19.8183 30.7771 19.8446C30.8167 19.8469 30.8562 19.8492 30.896 19.8514C31.1536 19.8659 31.4099 19.8789 31.665 19.8905C31.7059 19.8924 31.7466 19.8942 31.7872 19.896C32.218 19.9145 32.6451 19.9281 33.0684 19.9365C33.1203 19.9374 33.1722 19.9383 33.2239 19.9391C33.4483 19.9427 33.6714 19.9448 33.8935 19.9454C33.9571 19.9455 34.0207 19.9457 34.0841 19.9455C34.2121 19.9454 34.3396 19.9448 34.4668 19.9433C34.587 19.942 34.7067 19.94 34.8264 19.9375C35.052 19.9331 35.276 19.9265 35.4989 19.918H35.4987ZM34.9274 23.2687C34.7781 23.8113 34.6029 24.344 34.4029 24.8652C28.8911 25.142 23.6999 24.1276 18.5333 23.3119C18.485 23.3043 18.4367 23.2964 18.3883 23.289C18.1886 23.2576 17.9893 23.2266 17.7897 23.1959C17.6825 23.1794 17.5752 23.1633 17.4677 23.1471C17.3751 23.1331 17.2825 23.1192 17.1898 23.1053C16.933 23.0672 16.676 23.0296 16.419 22.9932C16.3882 22.9888 16.3573 22.9842 16.3264 22.9798C16.1747 22.9584 16.0229 22.9375 15.8711 22.917C15.8406 22.9128 15.8103 22.9087 15.7797 22.9046C15.2968 22.8394 14.8134 22.778 14.3296 22.7221C14.3236 22.7216 14.3178 22.7208 14.3118 22.7201C10.9657 22.3343 7.59622 22.2012 4.12304 22.7238C4.11754 22.7247 4.11204 22.7254 4.10646 22.7263C3.60015 22.8028 3.0914 22.8935 2.58029 22.9991C2.56641 23.0019 2.55279 23.0045 2.53891 23.0073C2.53882 23.0075 2.53882 23.0076 2.53874 23.0077C2.22491 23.0731 1.91039 23.1441 1.59474 23.221C1.45507 22.7038 1.33844 22.1768 1.24652 21.6404C1.91528 21.4813 2.5878 21.347 3.26398 21.2346C9.90481 20.131 16.8657 21.1823 23.4243 22.138C23.5556 22.1571 23.686 22.1759 23.8169 22.195C24.3075 22.2665 24.7959 22.3371 25.2815 22.4058C25.3226 22.4117 25.3636 22.4174 25.4047 22.4232C25.678 22.4618 25.9506 22.4997 26.2223 22.537C26.2786 22.5446 26.3348 22.5524 26.391 22.5601C27.1768 22.6673 27.9547 22.7674 28.7237 22.8572C28.7311 22.858 28.7385 22.8589 28.7458 22.8598C29.0618 22.8965 29.3762 22.9316 29.6891 22.9645C29.6899 22.9646 29.6907 22.9647 29.6915 22.9648C30.1507 23.0131 30.6064 23.0565 31.0584 23.0949C31.0981 23.0983 31.1379 23.1017 31.1776 23.1048C31.4356 23.1262 31.6925 23.1457 31.9481 23.1634C31.989 23.1661 32.0298 23.1691 32.0705 23.1718C32.5022 23.2005 32.9298 23.2234 33.3537 23.2398C33.4058 23.2419 33.4577 23.2435 33.5096 23.2454C33.7342 23.2533 33.9576 23.2591 34.18 23.2631C34.2437 23.2643 34.3073 23.2655 34.3708 23.2663C34.4989 23.2679 34.6267 23.2692 34.754 23.2694C34.812 23.2696 34.8698 23.2694 34.9277 23.2691L34.9274 23.2687ZM33.4086 27.0066C33.0376 27.681 32.6234 28.3292 32.1681 28.9466C27.5979 28.7974 23.2129 27.7766 18.8472 26.9204C18.7988 26.9108 18.7503 26.9012 18.7017 26.8917C18.5015 26.8527 18.3015 26.814 18.1014 26.7759C17.9939 26.7552 17.8862 26.7349 17.7786 26.7148C17.6857 26.6973 17.5927 26.68 17.4999 26.6627C17.2422 26.6147 16.9846 26.5678 16.7269 26.5221C16.696 26.5166 16.665 26.5109 16.6341 26.5054C16.4819 26.4785 16.3297 26.4521 16.1775 26.4263C16.1469 26.421 16.1164 26.4159 16.0859 26.4107C15.6016 26.3286 15.117 26.251 14.632 26.1798C14.6259 26.1788 14.6201 26.1779 14.6141 26.1771C11.2599 25.685 7.88543 25.4873 4.41548 26.0525C4.40998 26.0535 4.40448 26.0543 4.39898 26.0552C3.89302 26.1379 3.38497 26.2372 2.87482 26.3539C2.86094 26.357 2.84732 26.3598 2.83344 26.363C2.83336 26.3631 2.83336 26.3632 2.83327 26.3634C2.81913 26.3667 2.8049 26.3701 2.79067 26.3733C2.50941 25.8071 2.25756 25.2229 2.03837 24.6222C2.53568 24.5015 3.03509 24.3964 3.53669 24.3056C10.17 23.1032 17.151 24.4168 23.728 25.6139C23.8596 25.6379 23.9904 25.6615 24.1216 25.6854C24.6135 25.7749 25.1033 25.8633 25.5902 25.9497C25.6313 25.9571 25.6725 25.9642 25.7137 25.9716C25.9878 26.02 26.2612 26.0677 26.5335 26.1146C26.5901 26.1242 26.6464 26.1341 26.7028 26.1437C27.4907 26.2785 28.2706 26.405 29.0416 26.5194C29.0489 26.5205 29.0563 26.5216 29.0636 26.5226C29.3804 26.5696 29.6956 26.6144 30.0092 26.6567C30.0099 26.6568 30.0107 26.657 30.0116 26.6571C30.4718 26.7192 30.9284 26.7756 31.3814 26.8261C31.4212 26.8305 31.461 26.8347 31.5007 26.8391C31.7594 26.8674 32.0168 26.8933 32.2728 26.917C32.3137 26.9209 32.3547 26.9248 32.3954 26.9286C32.7357 26.9591 33.0732 26.9851 33.4086 27.007V27.0066ZM30.3835 31.007C29.5989 31.7822 28.7395 32.4837 27.8163 33.0994C24.9132 32.5984 22.0614 31.8535 19.2184 31.1879C19.1698 31.1766 19.1212 31.1649 19.0725 31.1536C18.8716 31.1069 18.6711 31.0606 18.4704 31.0148C18.3624 30.9901 18.2546 30.9657 18.1466 30.9415C18.0535 30.9205 17.9602 30.8998 17.867 30.879C17.6086 30.8215 17.3503 30.7651 17.0918 30.7099C17.0609 30.7033 17.0298 30.6965 16.9989 30.6899C16.8462 30.6576 16.6937 30.6257 16.541 30.5945C16.5104 30.5882 16.4798 30.5819 16.4491 30.5757C15.9636 30.4766 15.4777 30.3828 14.9915 30.296C14.9856 30.295 14.9797 30.2939 14.9737 30.2929C11.7466 29.7186 8.50391 29.4538 5.18332 29.9709C4.66357 29.3687 4.18371 28.7304 3.74951 28.0588C3.78853 28.0509 3.82755 28.0431 3.86675 28.0355C10.4925 26.7342 17.4935 28.3101 24.089 29.7485C24.221 29.7774 24.3521 29.8058 24.4837 29.8345C24.977 29.942 25.4682 30.0483 25.9565 30.1522C25.9977 30.1609 26.039 30.1696 26.0803 30.1783C26.3552 30.2367 26.6293 30.2941 26.9023 30.3506C26.959 30.3623 27.0155 30.374 27.0719 30.3856C27.8619 30.5481 28.6439 30.701 29.4168 30.8401C29.4241 30.8414 29.4315 30.8427 29.4388 30.844C29.7554 30.9008 30.0702 30.9551 30.3835 31.0067V31.007ZM24.482 34.8307C22.9483 35.4244 21.3048 35.8073 19.5838 35.9387C19.0686 35.978 18.5572 35.9929 18.0497 35.9866C17.8802 35.9432 17.7103 35.9005 17.5406 35.8583C17.5095 35.8508 17.4784 35.8426 17.4474 35.8349C17.2944 35.7971 17.1413 35.7599 16.9883 35.7234C16.9575 35.716 16.9269 35.7086 16.8962 35.7014C16.4093 35.5853 15.9222 35.4752 15.4349 35.3732C15.4289 35.3719 15.423 35.3706 15.417 35.3694C14.2836 35.1325 13.1488 34.9379 12.0098 34.8091C10.4162 34.1852 8.93121 33.3297 7.60006 32.2816C13.197 31.932 18.9794 33.4331 24.482 34.8307Z" fill="white"/>
</svg>
